<svg width="293" height="108" viewBox="0 0 293 108" fill="none" xmlns="http://www.w3.org/2000/svg">
<path fill-rule="evenodd" clip-rule="evenodd" d="M260 0.999756C262.761 0.999756 265 3.23833 265 5.99976V76.7074C265.104 78.6712 265.188 80.6858 265.251 82.752C265.707 97.4894 283.274 104.926 292 106.803C276.627 106.803 263.58 105.426 252.581 103H6C3.23859 103 1 100.761 1 97.9998V5.99976C1 3.23833 3.23859 0.999756 6 0.999756H260Z" fill="white"/>
<path d="M265 76.7074L264.501 76.7337L264.5 76.7205V76.7074H265ZM265.251 82.752L265.751 82.7365L265.751 82.7365L265.251 82.752ZM292 106.803L292.105 106.314L292 107.303V106.803ZM252.581 103V102.5H252.636L252.689 102.511L252.581 103ZM264.5 5.99976C264.5 3.51448 262.485 1.49976 260 1.49976V0.499756C263.038 0.499756 265.5 2.96219 265.5 5.99976H264.5ZM264.5 76.7074V5.99976H265.5V76.7074H264.5ZM264.752 82.7674C264.688 80.7048 264.604 78.6938 264.501 76.7337L265.499 76.6811C265.603 78.6487 265.687 80.6668 265.751 82.7365L264.752 82.7674ZM291.895 107.291C287.481 106.342 280.841 103.992 275.234 100.008C269.628 96.0242 264.986 90.3542 264.752 82.7674L265.751 82.7365C265.972 89.8872 270.341 95.3044 275.814 99.1927C281.286 103.081 287.792 105.387 292.105 106.314L291.895 107.291ZM252.689 102.511C263.646 104.928 276.656 106.303 292 106.303V107.303C276.598 107.303 263.514 105.923 252.473 103.488L252.689 102.511ZM6 102.5H252.581V103.5H6V102.5ZM1.5 97.9998C1.5 100.485 3.51473 102.5 6 102.5V103.5C2.96244 103.5 0.5 101.037 0.5 97.9998H1.5ZM1.5 5.99976V97.9998H0.5V5.99976H1.5ZM6 1.49976C3.51473 1.49976 1.5 3.51448 1.5 5.99976H0.5C0.5 2.96219 2.96244 0.499756 6 0.499756V1.49976ZM260 1.49976H6V0.499756H260V1.49976Z" fill="#FF9E4C"/>
</svg>
