<svg width="293" height="108" viewBox="0 0 293 108" fill="none" xmlns="http://www.w3.org/2000/svg">
<path fill-rule="evenodd" clip-rule="evenodd" d="M33 1C30.2386 1 28 3.23858 28 6V76.7074C27.8965 78.6714 27.8124 80.686 27.7486 82.7522C27.2933 97.4897 9.7265 104.927 1 106.803C16.373 106.803 29.4204 105.426 40.419 103H287C289.761 103 292 100.761 292 98V6C292 3.23858 289.761 1 287 1H33Z" fill="white"/>
<path d="M28 76.7074H28.5V76.7206L28.4993 76.7338L28 76.7074ZM27.7486 82.7522L27.2488 82.7368L27.2488 82.7368L27.7486 82.7522ZM1 106.803V107.303L0.894896 106.314L1 106.803ZM40.419 103L40.3113 102.512L40.3645 102.5H40.419V103ZM27.5 6C27.5 2.96244 29.9624 0.5 33 0.5V1.5C30.5147 1.5 28.5 3.51472 28.5 6H27.5ZM27.5 76.7074V6H28.5V76.7074H27.5ZM27.2488 82.7368C27.3128 80.667 27.397 78.6488 27.5007 76.6811L28.4993 76.7338C28.396 78.6939 28.3121 80.7049 28.2484 82.7676L27.2488 82.7368ZM0.894896 106.314C5.2077 105.387 11.7142 103.081 17.1864 99.1929C22.6587 95.3046 27.0279 89.8874 27.2488 82.7368L28.2484 82.7676C28.014 90.3544 23.3721 96.0245 17.7656 100.008C12.1589 103.992 5.5188 106.343 1.1051 107.292L0.894896 106.314ZM40.5267 103.488C29.4864 105.923 16.4021 107.303 1 107.303V106.303C16.3439 106.303 29.3544 104.928 40.3113 102.512L40.5267 103.488ZM287 103.5H40.419V102.5H287V103.5ZM292.5 98C292.5 101.038 290.038 103.5 287 103.5V102.5C289.485 102.5 291.5 100.485 291.5 98H292.5ZM292.5 6V98H291.5V6H292.5ZM287 0.5C290.038 0.5 292.5 2.96243 292.5 6H291.5C291.5 3.51472 289.485 1.5 287 1.5V0.5ZM33 0.5H287V1.5H33V0.5Z" fill="#FF9E4C"/>
</svg>
